<svg width="37" height="36" viewBox="0 0 37 36" fill="none" xmlns="http://www.w3.org/2000/svg">
<rect width="36.2177" height="35.9211" rx="17.9605" fill="#FCC171"/>
<path d="M17.0838 12.5062C17.2538 13.0725 18.0886 13.0007 18.1568 12.4138L19.2244 3.22682C18.8561 3.1999 18.4833 3.18555 18.1077 3.18555C18.095 3.18555 18.0822 3.18555 18.0695 3.18555C16.1754 3.19003 14.8268 5.00822 15.366 6.80038L17.0829 12.5062H17.0838Z" fill="#040406"/>
<path d="M20.8767 13.1327C20.6384 13.6747 21.325 14.1485 21.7596 13.7429L28.5606 7.38285C28.5487 7.37208 28.5378 7.36041 28.526 7.34964C26.7874 5.68671 23.8938 6.27272 22.9299 8.46514L20.8776 13.1327H20.8767Z" fill="#040406"/>
<path d="M19.0362 12.4893C18.9998 13.0789 19.8091 13.2934 20.0774 12.7648L24.2658 4.48872C24.2512 4.48244 24.2367 4.47616 24.2221 4.46988C22.0115 3.49258 19.4936 5.02 19.3472 7.40715L19.0362 12.4902V12.4893Z" fill="#040406"/>
<path d="M23.4074 19.8122C22.8254 19.6749 22.4708 20.4243 22.9518 20.7761L30.4802 26.2827C30.4893 26.2692 30.4984 26.2567 30.5075 26.2432C31.867 24.2653 30.7803 21.5533 28.4251 20.9978L23.4074 19.8122Z" fill="#040406"/>
<path d="M22.1661 32.1867C22.1815 32.1822 22.1979 32.1777 22.2133 32.1732C24.5431 31.519 25.4751 28.7522 24.0329 26.8317L20.9612 22.7404C20.6047 22.2656 19.8454 22.6156 19.9846 23.19L22.1661 32.1867Z" fill="#040406"/>
<path d="M22.4461 21.4893C21.9469 21.1636 21.354 21.7487 21.6841 22.2414L26.85 29.9565C26.8627 29.9476 26.8764 29.9377 26.8891 29.9287C28.8496 28.5252 28.7651 25.6112 26.7445 24.2938L22.4452 21.4902L22.4461 21.4893Z" fill="#040406"/>
<path d="M23.6355 18.9713L32.6207 21.6052C32.6271 21.581 32.6334 21.5559 32.6389 21.5299C33.1836 19.2109 31.2085 17.0661 28.8124 17.3371L23.7292 17.9123C23.1345 17.9796 23.0617 18.8035 23.6355 18.9713Z" fill="#040406"/>
<path d="M22.3826 14.3576C21.9706 14.7866 22.4517 15.4641 23.0009 15.229L31.5996 11.5469C31.5923 11.5325 31.5851 11.5181 31.5787 11.5038C30.5184 9.35445 27.5958 8.92997 25.929 10.6656L22.3826 14.3585V14.3576Z" fill="#040406"/>
<path d="M23.6519 17.0454L33.0054 16.4872C33.0036 16.471 33.0017 16.4549 33.0008 16.4387C32.7544 14.0614 30.1564 12.6749 27.9904 13.7419L23.3737 16.0178C22.8381 16.2817 23.0554 17.0804 23.6528 17.0454H23.6519Z" fill="#040406"/>
<path d="M17.1801 23.4322C17.2165 22.8426 16.4072 22.6281 16.1389 23.1567L11.9505 31.4328C11.9651 31.4391 11.9796 31.4454 11.9942 31.4516C14.2048 32.4289 16.7227 30.9015 16.8691 28.5144L17.1801 23.4313V23.4322Z" fill="#040406"/>
<path d="M15.3406 22.789C15.5789 22.2469 14.8923 21.7731 14.4577 22.1787L7.65674 28.5388C7.66856 28.5495 7.67947 28.5612 7.69129 28.572C9.42994 30.2349 12.3235 29.6489 13.2874 27.4565L15.3397 22.789H15.3406Z" fill="#040406"/>
<path d="M13.8338 21.563C14.2458 21.1341 13.7647 20.4565 13.2155 20.6916L4.6168 24.3738C4.62407 24.3881 4.63135 24.4025 4.63771 24.4168C5.698 26.5662 8.62061 26.9907 10.2874 25.255L13.8338 21.5621V21.563Z" fill="#040406"/>
<path d="M19.1325 23.4152C18.9624 22.849 18.1277 22.9208 18.0595 23.5077L16.9919 32.6946C17.3602 32.7215 18.134 32.7359 18.1468 32.7359C20.0409 32.7314 21.3895 30.9132 20.8502 29.1211L19.1334 23.4152H19.1325Z" fill="#040406"/>
<path d="M12.5817 16.9493L3.59654 14.3154C3.59017 14.3396 3.58381 14.3647 3.57835 14.3908C3.03366 16.7097 5.00874 18.8545 7.40485 18.5835L12.488 18.0083C13.0828 17.941 13.1555 17.1171 12.5817 16.9493Z" fill="#040406"/>
<path d="M12.8435 19.9036C13.3791 19.6397 13.1618 18.841 12.5644 18.876L3.21094 19.4342C3.21276 19.4504 3.21458 19.4665 3.21549 19.4827C3.46192 21.86 6.05989 23.2465 8.22594 22.1794L12.8426 19.9036H12.8435Z" fill="#040406"/>
<path d="M13.771 14.432C14.2703 14.7577 14.8631 14.1726 14.5331 13.6799L9.36711 5.96475C9.35438 5.97373 9.34074 5.98361 9.32801 5.99258C7.36748 7.39615 7.45204 10.3101 9.47259 11.6275L13.7719 14.4311L13.771 14.432Z" fill="#040406"/>
<path d="M16.2318 12.7314L14.0503 3.73475C14.0348 3.73923 14.0184 3.74372 14.003 3.74821C11.6733 4.40244 10.7412 7.1692 12.1834 9.08969L15.2551 13.1811C15.6116 13.6558 16.3709 13.3058 16.2318 12.7314Z" fill="#040406"/>
<path d="M12.8099 16.1084C13.3919 16.2457 13.7465 15.4964 13.2655 15.1446L5.73706 9.63798C5.72797 9.65144 5.71887 9.664 5.70977 9.67746C4.35031 11.6554 5.43697 14.3674 7.79216 14.9229L12.8099 16.1084Z" fill="#040406"/>
</svg>
